<?xml version="1.0" encoding="UTF-8"?>
<svg id="Camada_1" data-name="Camada 1" xmlns="http://www.w3.org/2000/svg" viewBox="0 0 360 209.09">
  <defs>
    <style>
      .cls-1 {
        fill: #fff;
      }

      .cls-2 {
        fill: #fbb03b;
      }

      .cls-3 {
        fill: #020073;
      }
    </style>
  </defs>
  <rect class="cls-3" width="360" height="209.09"/>
  <g>
    <path class="cls-2" d="M137.66,104.54v67.5h-67.5v-67.5h67.5ZM85.16,119.54v37.5h37.5v-37.5h-37.5ZM115.16,127.04v22.5h-22.5v-22.5h22.5Z"/>
    <path class="cls-2" d="M212.66,104.54v67.5h-67.5v-67.5h67.5ZM167.66,157.04v-25.78l22.5,25.78h7.5v-37.5h-7.5v26.6l-22.5-26.6h-7.5v37.5h7.5Z"/>
    <path class="cls-2" d="M287.66,104.54v67.5h-67.5v-67.5h67.5ZM242.66,127.04h30v-7.5h-37.5v37.5h37.5v-7.5h-30v-7.5h22.5v-7.5h-22.5v-7.5Z"/>
  </g>
  <g>
    <path class="cls-1" d="M86.55,90l-32.16-36.81v36.81h-5.77v-45h5.65l32.16,36.81v-36.81h5.77v45h-5.65Z"/>
    <path class="cls-1" d="M107.05,90v-45h38.17v5.3h-32.4v14.2h26.68v5.07h-26.68v15.14h32.81v5.3h-38.58Z"/>
    <path class="cls-1" d="M195.31,90l-16.37-19.32-16.43,19.32h-6.89v-.29l19.85-22.68-19.03-21.73v-.29h6.95l15.55,18.32,15.49-18.32h6.95v.29l-19.02,21.73,19.85,22.68v.29h-6.89Z"/>
    <path class="cls-1" d="M253.01,90h-37.87c-1.88,0-2.95-1.12-2.95-2.83v-42.17h5.77v39.7h32.04v-39.7h5.77v42.17c0,1.71-1.06,2.83-2.77,2.83Z"/>
    <path class="cls-1" d="M308.61,90h-35.22c-1.71,0-2.77-1.12-2.77-2.83v-12.25h5.77v9.9h29.21v-10.13l-32.63-11.72c-1.83-.65-2.36-1.59-2.36-3.42v-11.72c0-1.71,1.06-2.83,2.77-2.83h35.28c1.65,0,2.71,1.06,2.71,2.83v11.19h-5.77v-8.84h-29.21v8.54l32.63,11.66c1.71.59,2.36,1.65,2.36,3.42v13.37c0,1.71-1.06,2.83-2.77,2.83Z"/>
  </g>
</svg>